<?xml version="1.0" encoding="utf-8"?>
<!-- Generator: Adobe Illustrator 24.3.0, SVG Export Plug-In . SVG Version: 6.00 Build 0)  -->
<svg version="1.1" id="Layer_1" xmlns="http://www.w3.org/2000/svg" xmlns:xlink="http://www.w3.org/1999/xlink" x="0px" y="0px"
	 viewBox="0 0 382.7 379.4" style="enable-background:new 0 0 382.7 379.4;" xml:space="preserve">
<style type="text/css">
	.st0{fill:#FFFFFF;stroke:#FFFFFF;stroke-miterlimit:10;}
</style>
<path class="st0" d="M354.3,199.6H20.7c-3.1,0-5.6-2.5-5.6-5.6s2.5-5.6,5.6-5.6h333.6c3.1,0,5.6,2.5,5.6,5.6
	S357.4,199.6,354.3,199.6z"/>
<path class="st0" d="M356.7,199.6c-1.5,0-2.9-0.6-4-1.7l-166.8-168c-2.2-2.2-2.2-5.7,0-7.9s5.7-2.2,7.9,0l167.1,168.1
	c1.6,1.6,2,4,1.2,6.1c-0.9,2.1-2.9,3.4-5.1,3.4L356.7,199.6z"/>
<path class="st0" d="M189.9,367.6c-2.2,0-4.3-1.4-5.1-3.4c-0.9-2.1-0.4-4.5,1.2-6.1l166.8-168c2.2-2.3,5.8-2.3,8-0.2
	c2.3,2.2,2.3,5.8,0.2,8l-166.8,168C193,367,191.5,367.7,189.9,367.6L189.9,367.6z"/>
</svg>
