<?xml version="1.0" encoding="utf-8"?>
<!-- Generator: Adobe Illustrator 24.3.0, SVG Export Plug-In . SVG Version: 6.00 Build 0)  -->
<svg version="1.1" id="Layer_1" xmlns="http://www.w3.org/2000/svg" xmlns:xlink="http://www.w3.org/1999/xlink" x="0px" y="0px"
	 viewBox="0 0 337.9 542.7" style="enable-background:new 0 0 337.9 542.7;" xml:space="preserve">
<path d="M254.2,337.6c12.7-12.7,31.4-31.4,41.6-41.6c10.2-10.2,10.2-26.8,0-37c-10.2-10.2-28.9-28.9-41.6-41.6L90,53.1
	c-12.7-12.7-31.4-14.8-41.6-4.6c-10.2,10.2-8.1,28.9,4.6,41.6l164.3,164.3c12.7,12.7,12.7,33.5,0,46.2L52.9,464.9
	c-12.7,12.7-14.8,31.4-4.6,41.6c10.2,10.2,28.9,8.1,41.6-4.6L254.2,337.6z"/>
</svg>
